<?xml version="1.0" encoding="UTF-8" standalone="no"?>
<!DOCTYPE svg PUBLIC "-//W3C//DTD SVG 1.1//EN"
 "http://www.w3.org/Graphics/SVG/1.1/DTD/svg11.dtd">
<!-- Generated by graphviz version 16.1.0 (20260904.0139)
 -->
<!-- Title: StudyPilot Pages: 1 -->
<svg width="1839pt" height="1176pt"
 viewBox="0.00 0.00 1839.00 1176.00" xmlns="http://www.w3.org/2000/svg" xmlns:xlink="http://www.w3.org/1999/xlink">
<g id="graph0" class="graph" transform="scale(1 1) rotate(0) translate(18 1157.5)">
<title>StudyPilot</title>
<polygon fill="white" stroke="none" points="-18,18 -18,-1157.5 1821,-1157.5 1821,18 -18,18"/>
<text xml:space="preserve" text-anchor="middle" x="901.5" y="-1116.5" font-family="Arial" font-size="20.00">StudyPilot – UML&#45;Gesamtarchitektur</text>
<g id="clust1" class="cluster">
<title>cluster_app</title>
<path fill="#eaf4ff" stroke="#78a8d8" stroke-width="1.2" d="M20,-895C20,-895 182,-895 182,-895 188,-895 194,-901 194,-907 194,-907 194,-980.25 194,-980.25 194,-986.25 188,-992.25 182,-992.25 182,-992.25 20,-992.25 20,-992.25 14,-992.25 8,-986.25 8,-980.25 8,-980.25 8,-907 8,-907 8,-901 14,-895 20,-895"/>
<text xml:space="preserve" text-anchor="middle" x="101" y="-969.25" font-family="Arial" font-size="20.00">Application&#45;Schicht</text>
</g>
<g id="clust2" class="cluster">
<title>cluster_presentation</title>
<path fill="#eefaf0" stroke="#7cb38a" stroke-width="1.2" d="M222,-580C222,-580 717,-580 717,-580 723,-580 729,-586 729,-592 729,-592 729,-1016.25 729,-1016.25 729,-1022.25 723,-1028.25 717,-1028.25 717,-1028.25 222,-1028.25 222,-1028.25 216,-1028.25 210,-1022.25 210,-1016.25 210,-1016.25 210,-592 210,-592 210,-586 216,-580 222,-580"/>
<text xml:space="preserve" text-anchor="middle" x="469.5" y="-1005.25" font-family="Arial" font-size="20.00">Präsentationsschicht</text>
</g>
<g id="clust5" class="cluster">
<title>cluster_dto</title>
<path fill="#fff8df" stroke="#c9a541" stroke-width="1.2" d="M749,-532C749,-532 1089,-532 1089,-532 1095,-532 1101,-538 1101,-544 1101,-544 1101,-1076.25 1101,-1076.25 1101,-1082.25 1095,-1088.25 1089,-1088.25 1089,-1088.25 749,-1088.25 749,-1088.25 743,-1088.25 737,-1082.25 737,-1076.25 737,-1076.25 737,-544 737,-544 737,-538 743,-532 749,-532"/>
<text xml:space="preserve" text-anchor="middle" x="919" y="-1065.25" font-family="Arial" font-size="20.00">DTO&#45;Schicht</text>
</g>
<g id="clust7" class="cluster">
<title>cluster_service</title>
<path fill="#f3edff" stroke="#9d86c9" stroke-width="1.2" d="M1137,-787C1137,-787 1363,-787 1363,-787 1369,-787 1375,-793 1375,-799 1375,-799 1375,-1088.25 1375,-1088.25 1375,-1094.25 1369,-1100.25 1363,-1100.25 1363,-1100.25 1137,-1100.25 1137,-1100.25 1131,-1100.25 1125,-1094.25 1125,-1088.25 1125,-1088.25 1125,-799 1125,-799 1125,-793 1131,-787 1137,-787"/>
<text xml:space="preserve" text-anchor="middle" x="1250" y="-1077.25" font-family="Arial" font-size="20.00">Service&#45;Schicht</text>
</g>
<g id="clust8" class="cluster">
<title>cluster_repository</title>
<path fill="#eef6ff" stroke="#7ba2c6" stroke-width="1.2" d="M1411,-871C1411,-871 1783,-871 1783,-871 1789,-871 1795,-877 1795,-883 1795,-883 1795,-1004.25 1795,-1004.25 1795,-1010.25 1789,-1016.25 1783,-1016.25 1783,-1016.25 1411,-1016.25 1411,-1016.25 1405,-1016.25 1399,-1010.25 1399,-1004.25 1399,-1004.25 1399,-883 1399,-883 1399,-877 1405,-871 1411,-871"/>
<text xml:space="preserve" text-anchor="middle" x="1597" y="-993.25" font-family="Arial" font-size="20.00">Repository&#45;Schicht</text>
</g>
<g id="clust10" class="cluster">
<title>cluster_domain</title>
<path fill="#fff0f0" stroke="#d37b7b" stroke-width="1.2" d="M1086,-301C1086,-301 1713,-301 1713,-301 1719,-301 1725,-307 1725,-313 1725,-313 1725,-506.25 1725,-506.25 1725,-512.25 1719,-518.25 1713,-518.25 1713,-518.25 1086,-518.25 1086,-518.25 1080,-518.25 1074,-512.25 1074,-506.25 1074,-506.25 1074,-313 1074,-313 1074,-307 1080,-301 1086,-301"/>
<text xml:space="preserve" text-anchor="middle" x="1399.5" y="-495.25" font-family="Arial" font-size="20.00">Domain&#45;Schicht</text>
</g>
<g id="clust12" class="cluster">
<title>cluster_enums</title>
<path fill="#f0f7ff" stroke="#7ba2c6" stroke-width="1.2" d="M1096,-8C1096,-8 1380,-8 1380,-8 1386,-8 1392,-14 1392,-20 1392,-20 1392,-213.25 1392,-213.25 1392,-219.25 1386,-225.25 1380,-225.25 1380,-225.25 1096,-225.25 1096,-225.25 1090,-225.25 1084,-219.25 1084,-213.25 1084,-213.25 1084,-20 1084,-20 1084,-14 1090,-8 1096,-8"/>
<text xml:space="preserve" text-anchor="middle" x="1238" y="-202.25" font-family="Arial" font-size="20.00">Enums</text>
</g>
<!-- StudyPilotApp -->
<g id="node1" class="node">
<title>StudyPilotApp</title>
<polygon fill="white" stroke="none" points="95.88,-903 95.88,-953 178.12,-953 178.12,-903 95.88,-903"/>
<polygon fill="none" stroke="#404040" points="95.88,-903 95.88,-953 178.12,-953 178.12,-903 95.88,-903"/>
<text xml:space="preserve" text-anchor="start" x="102.88" y="-937.5" font-family="Arial" font-weight="bold" font-size="10.00">StudyPilotApp</text>
<text xml:space="preserve" text-anchor="start" x="102.88" y="-912.25" font-family="Arial" font-size="10.00">+ start() : None</text>
</g>
<!-- DashboardView -->
<g id="node2" class="node">
<title>DashboardView</title>
<polygon fill="white" stroke="none" points="217.88,-903 217.88,-953 480.12,-953 480.12,-903 217.88,-903"/>
<polygon fill="none" stroke="#404040" points="217.88,-903 217.88,-953 480.12,-953 480.12,-903 217.88,-903"/>
<text xml:space="preserve" text-anchor="start" x="312.25" y="-937.5" font-family="Arial" font-weight="bold" font-size="10.00">DashboardView</text>
<text xml:space="preserve" text-anchor="start" x="224.88" y="-912.25" font-family="Arial" font-size="10.00">+ zeige_dashboard(daten : DashboardDatenDTO) : None</text>
</g>
<!-- StudyPilotApp&#45;&gt;DashboardView -->
<!-- StudyPilotApp&#45;&gt;DashboardView -->
<g id="edge18" class="edge">
<title>StudyPilotApp&#45;&gt;DashboardView</title>
<path fill="none" stroke="#3f4650" stroke-width="1.2" stroke-dasharray="5,2" d="M177.88,-920C177.88,-920 208.97,-920 208.97,-920"/>
<polygon fill="#3f4650" stroke="#3f4650" stroke-width="1.2" points="208.97,-922.63 216.47,-920 208.97,-917.38 208.97,-922.63"/>
<text xml:space="preserve" text-anchor="middle" x="193.25" y="-921.95" font-family="Arial" font-size="9.00">erzeugt</text>
</g>
<!-- DashboardController -->
<g id="node3" class="node">
<title>DashboardController</title>
<polygon fill="white" stroke="none" points="520.62,-867 520.62,-989 721.38,-989 721.38,-867 520.62,-867"/>
<polygon fill="none" stroke="#404040" points="520.62,-867 520.62,-989 721.38,-989 721.38,-867 520.62,-867"/>
<text xml:space="preserve" text-anchor="start" x="571.88" y="-973.5" font-family="Arial" font-weight="bold" font-size="10.00">DashboardController</text>
<text xml:space="preserve" text-anchor="start" x="527.62" y="-948.25" font-family="Arial" font-size="10.00">&#45; service : StudienService</text>
<text xml:space="preserve" text-anchor="start" x="527.62" y="-924.25" font-family="Arial" font-size="10.00">&#45; repository : StudienRepository</text>
<text xml:space="preserve" text-anchor="start" x="527.62" y="-900.25" font-family="Arial" font-size="10.00">+ lade_dashboard() : DashboardDatenDTO</text>
<text xml:space="preserve" text-anchor="start" x="527.62" y="-876.25" font-family="Arial" font-size="10.00">+ speichere_studiengang(...) : None</text>
</g>
<!-- StudyPilotApp&#45;&gt;DashboardController -->
<g id="edge19" class="edge">
<title>StudyPilotApp&#45;&gt;DashboardController</title>
<path fill="none" stroke="#3f4650" stroke-width="1.2" stroke-dasharray="5,2" d="M137,-952.51C137,-962.17 137,-971 137,-971 137,-971 511.4,-971 511.4,-971"/>
<polygon fill="#3f4650" stroke="#3f4650" stroke-width="1.2" points="511.4,-973.63 518.9,-971 511.4,-968.38 511.4,-973.63"/>
<text xml:space="preserve" text-anchor="middle" x="121.62" y="-954.46" font-family="Arial" font-size="9.00">erzeugt</text>
</g>
<!-- StudienService -->
<g id="node9" class="node">
<title>StudienService</title>
<polygon fill="white" stroke="none" points="1132.75,-795 1132.75,-1061 1367.25,-1061 1367.25,-795 1132.75,-795"/>
<polygon fill="none" stroke="#404040" points="1132.75,-795 1132.75,-1061 1367.25,-1061 1367.25,-795 1132.75,-795"/>
<text xml:space="preserve" text-anchor="start" x="1214.75" y="-1045.5" font-family="Arial" font-weight="bold" font-size="10.00">StudienService</text>
<text xml:space="preserve" text-anchor="start" x="1139.75" y="-1020.25" font-family="Arial" font-size="10.00">+ berechne_erreichte_ects(...) : Integer</text>
<text xml:space="preserve" text-anchor="start" x="1139.75" y="-996.25" font-family="Arial" font-size="10.00">+ berechne_verbleibende_ects(...) : Integer</text>
<text xml:space="preserve" text-anchor="start" x="1139.75" y="-972.25" font-family="Arial" font-size="10.00">+ berechne_fortschritt(...) : Float</text>
<text xml:space="preserve" text-anchor="start" x="1139.75" y="-948.25" font-family="Arial" font-size="10.00">+ berechne_notendurchschnitt(...) : Float [0..1]</text>
<text xml:space="preserve" text-anchor="start" x="1139.75" y="-924.25" font-family="Arial" font-size="10.00">+ ermittle_bestandene_module(...) : Integer</text>
<text xml:space="preserve" text-anchor="start" x="1139.75" y="-900.25" font-family="Arial" font-size="10.00">+ ermittle_laufende_module(...) : Integer</text>
<text xml:space="preserve" text-anchor="start" x="1139.75" y="-876.25" font-family="Arial" font-size="10.00">+ berechne_erreichte_ects_am_datum(...) : Integer</text>
<text xml:space="preserve" text-anchor="start" x="1139.75" y="-852.25" font-family="Arial" font-size="10.00">+ berechne_fortschritt_am_datum(...) : Float</text>
<text xml:space="preserve" text-anchor="start" x="1139.75" y="-828.25" font-family="Arial" font-size="10.00">+ berechne_soll_fortschritt(...) : Float</text>
<text xml:space="preserve" text-anchor="start" x="1139.75" y="-804.25" font-family="Arial" font-size="10.00">+ berechne_soll_ist_abweichung(...) : Float [0..1]</text>
</g>
<!-- StudyPilotApp&#45;&gt;StudienService -->
<g id="edge20" class="edge">
<title>StudyPilotApp&#45;&gt;StudienService</title>
<path fill="none" stroke="#3f4650" stroke-width="1.2" stroke-dasharray="5,2" d="M150.71,-903.21C150.71,-866.25 150.71,-801 150.71,-801 150.71,-801 1123.56,-801 1123.56,-801"/>
<polygon fill="#3f4650" stroke="#3f4650" stroke-width="1.2" points="1123.56,-803.63 1131.06,-801 1123.56,-798.38 1123.56,-803.63"/>
<text xml:space="preserve" text-anchor="middle" x="135.33" y="-894.66" font-family="Arial" font-size="9.00">erzeugt</text>
</g>
<!-- SQLiteStudienRepository -->
<g id="node11" class="node">
<title>SQLiteStudienRepository</title>
<polygon fill="white" stroke="none" points="1617,-879 1617,-977 1787,-977 1787,-879 1617,-879"/>
<polygon fill="none" stroke="#404040" points="1617,-879 1617,-977 1787,-977 1787,-879 1617,-879"/>
<text xml:space="preserve" text-anchor="start" x="1642.75" y="-961.5" font-family="Arial" font-weight="bold" font-size="10.00">SQLiteStudienRepository</text>
<text xml:space="preserve" text-anchor="start" x="1624" y="-936.25" font-family="Arial" font-size="10.00">&#45; dateipfad : String</text>
<text xml:space="preserve" text-anchor="start" x="1624" y="-912.25" font-family="Arial" font-size="10.00">+ lade_studiengang() : Studiengang</text>
<text xml:space="preserve" text-anchor="start" x="1624" y="-888.25" font-family="Arial" font-size="10.00">+ speichere_studiengang(...) : None</text>
</g>
<!-- StudyPilotApp&#45;&gt;SQLiteStudienRepository -->
<g id="edge21" class="edge">
<title>StudyPilotApp&#45;&gt;SQLiteStudienRepository</title>
<path fill="none" stroke="#3f4650" stroke-width="1.2" stroke-dasharray="5,2" d="M123.29,-903.24C123.29,-857.65 123.29,-765 123.29,-765 123.29,-765 1666.81,-765 1666.81,-765 1666.81,-765 1666.81,-869.78 1666.81,-869.78"/>
<polygon fill="#3f4650" stroke="#3f4650" stroke-width="1.2" points="1664.19,-869.78 1666.81,-877.28 1669.44,-869.78 1664.19,-869.78"/>
<text xml:space="preserve" text-anchor="middle" x="107.92" y="-894.69" font-family="Arial" font-size="9.00">erzeugt</text>
</g>
<!-- DashboardView&#45;&gt;DashboardController -->
<!-- CircularProgress -->
<g id="node4" class="node">
<title>CircularProgress</title>
<polygon fill="white" stroke="none" points="309.88,-588 309.88,-686 458.12,-686 458.12,-588 309.88,-588"/>
<polygon fill="none" stroke="#404040" points="309.88,-588 309.88,-686 458.12,-686 458.12,-588 309.88,-588"/>
<text xml:space="preserve" text-anchor="start" x="325.5" y="-670.5" font-family="Arial" font-weight="bold" font-size="10.00">CircularProgress &lt;&lt;UI&gt;&gt;</text>
<text xml:space="preserve" text-anchor="start" x="316.88" y="-645.25" font-family="Arial" font-size="10.00">&#45; wert : Float</text>
<text xml:space="preserve" text-anchor="start" x="316.88" y="-621.25" font-family="Arial" font-size="10.00">+ set_wert(wert : Float) : None</text>
<text xml:space="preserve" text-anchor="start" x="316.88" y="-597.25" font-family="Arial" font-size="10.00">+ paintEvent(event) : None</text>
</g>
<!-- DashboardView&#45;&gt;CircularProgress -->
<!-- DashboardView&#45;&gt;CircularProgress -->
<g id="edge22" class="edge">
<title>DashboardView:s&#45;&gt;CircularProgress:n</title>
<path fill="none" stroke="#3f4650" stroke-width="1.2" d="M408.71,-892.79C408.71,-892.79 408.71,-685.96 408.71,-685.96"/>
<polygon fill="#3f4650" stroke="#3f4650" stroke-width="1.2" points="408.71,-892.97 411.71,-897.47 408.71,-901.97 405.71,-897.47 408.71,-892.97"/>
<text xml:space="preserve" text-anchor="middle" x="402.79" y="-695.35" font-family="Arial" font-size="9.00">1</text>
<text xml:space="preserve" text-anchor="middle" x="414.62" y="-887.07" font-family="Arial" font-size="9.00">1</text>
</g>
<!-- FortschrittChart -->
<g id="node5" class="node">
<title>FortschrittChart</title>
<polygon fill="white" stroke="none" points="497.88,-588 497.88,-686 670.12,-686 670.12,-588 497.88,-588"/>
<polygon fill="none" stroke="#404040" points="497.88,-588 497.88,-686 670.12,-686 670.12,-588 497.88,-588"/>
<text xml:space="preserve" text-anchor="start" x="528.5" y="-670.5" font-family="Arial" font-weight="bold" font-size="10.00">FortschrittChart &lt;&lt;UI&gt;&gt;</text>
<text xml:space="preserve" text-anchor="start" x="504.88" y="-645.25" font-family="Arial" font-size="10.00">&#45; daten : List&lt;FortschrittDatenDTO&gt;</text>
<text xml:space="preserve" text-anchor="start" x="504.88" y="-621.25" font-family="Arial" font-size="10.00">+ set_daten(daten) : None</text>
<text xml:space="preserve" text-anchor="start" x="504.88" y="-597.25" font-family="Arial" font-size="10.00">+ paintEvent(event) : None</text>
</g>
<!-- DashboardView&#45;&gt;FortschrittChart -->
<g id="edge23" class="edge">
<title>DashboardView:s&#45;&gt;FortschrittChart:n</title>
<path fill="none" stroke="#3f4650" stroke-width="1.2" d="M359.26,-920C359.26,-920 509.25,-920 509.25,-920 509.25,-920 509.25,-685.99 509.25,-685.99"/>
<polygon fill="#3f4650" stroke="#3f4650" stroke-width="1.2" points="359.08,-920 354.58,-923 350.08,-920 354.58,-917 359.08,-920"/>
<text xml:space="preserve" text-anchor="middle" x="515.17" y="-695.38" font-family="Arial" font-size="9.00">1</text>
<text xml:space="preserve" text-anchor="middle" x="361.69" y="-910.78" font-family="Arial" font-size="9.00">1</text>
</g>
<!-- DashboardDatenDTO -->
<g id="node6" class="node">
<title>DashboardDatenDTO</title>
<polygon fill="white" stroke="none" points="865.5,-807 865.5,-1049 1092.5,-1049 1092.5,-807 865.5,-807"/>
<polygon fill="none" stroke="#404040" points="865.5,-807 865.5,-1049 1092.5,-1049 1092.5,-807 865.5,-807"/>
<text xml:space="preserve" text-anchor="start" x="905.5" y="-1033.5" font-family="Arial" font-weight="bold" font-size="10.00">DashboardDatenDTO &lt;&lt;DTO&gt;&gt;</text>
<text xml:space="preserve" text-anchor="start" x="872.5" y="-1008.25" font-family="Arial" font-size="10.00">+ gesamt_ects : Integer</text>
<text xml:space="preserve" text-anchor="start" x="872.5" y="-984.25" font-family="Arial" font-size="10.00">+ erreichte_ects : Integer</text>
<text xml:space="preserve" text-anchor="start" x="872.5" y="-960.25" font-family="Arial" font-size="10.00">+ verbleibende_ects : Integer</text>
<text xml:space="preserve" text-anchor="start" x="872.5" y="-936.25" font-family="Arial" font-size="10.00">+ fortschritt_prozent : Float</text>
<text xml:space="preserve" text-anchor="start" x="872.5" y="-912.25" font-family="Arial" font-size="10.00">+ notendurchschnitt : Float [0..1]</text>
<text xml:space="preserve" text-anchor="start" x="872.5" y="-888.25" font-family="Arial" font-size="10.00">+ bestandene_module : Integer</text>
<text xml:space="preserve" text-anchor="start" x="872.5" y="-864.25" font-family="Arial" font-size="10.00">+ laufende_module : Integer</text>
<text xml:space="preserve" text-anchor="start" x="872.5" y="-840.25" font-family="Arial" font-size="10.00">+ module : List&lt;ModulDatenDTO&gt;</text>
<text xml:space="preserve" text-anchor="start" x="872.5" y="-816.25" font-family="Arial" font-size="10.00">+ fortschritt_verlauf : List&lt;FortschrittDatenDTO&gt;</text>
</g>
<!-- DashboardView&#45;&gt;DashboardDatenDTO -->
<!-- DashboardView&#45;&gt;DashboardDatenDTO -->
<g id="edge24" class="edge">
<title>DashboardView&#45;&gt;DashboardDatenDTO</title>
<path fill="none" stroke="#3f4650" stroke-width="1.2" stroke-dasharray="5,2" d="M469.12,-903.03C469.12,-873.12 469.12,-827 469.12,-827 469.12,-827 856.21,-827 856.21,-827"/>
<polygon fill="#3f4650" stroke="#3f4650" stroke-width="1.2" points="856.21,-829.63 863.71,-827 856.21,-824.38 856.21,-829.63"/>
<text xml:space="preserve" text-anchor="middle" x="451.88" y="-894.48" font-family="Arial" font-size="9.00">stellt dar</text>
</g>
<!-- ModulDatenDTO -->
<g id="node7" class="node">
<title>ModulDatenDTO</title>
<polygon fill="white" stroke="none" points="745.5,-540 745.5,-734 894.5,-734 894.5,-540 745.5,-540"/>
<polygon fill="none" stroke="#404040" points="745.5,-540 745.5,-734 894.5,-734 894.5,-540 745.5,-540"/>
<text xml:space="preserve" text-anchor="start" x="757.38" y="-718.5" font-family="Arial" font-weight="bold" font-size="10.00">ModulDatenDTO &lt;&lt;DTO&gt;&gt;</text>
<text xml:space="preserve" text-anchor="start" x="752.5" y="-693.25" font-family="Arial" font-size="10.00">+ modulnummer : String</text>
<text xml:space="preserve" text-anchor="start" x="752.5" y="-669.25" font-family="Arial" font-size="10.00">+ bezeichnung : String</text>
<text xml:space="preserve" text-anchor="start" x="752.5" y="-645.25" font-family="Arial" font-size="10.00">+ semester : Integer</text>
<text xml:space="preserve" text-anchor="start" x="752.5" y="-621.25" font-family="Arial" font-size="10.00">+ ects : Integer</text>
<text xml:space="preserve" text-anchor="start" x="752.5" y="-597.25" font-family="Arial" font-size="10.00">+ status : String</text>
<text xml:space="preserve" text-anchor="start" x="752.5" y="-573.25" font-family="Arial" font-size="10.00">+ pruefungsleistungen : Integer</text>
<text xml:space="preserve" text-anchor="start" x="752.5" y="-549.25" font-family="Arial" font-size="10.00">+ note : Float [0..1]</text>
</g>
<!-- DashboardView&#45;&gt;ModulDatenDTO -->
<g id="edge32" class="edge">
<title>DashboardView&#45;&gt;ModulDatenDTO</title>
<path fill="none" stroke="#3f4650" stroke-width="1.2" stroke-dasharray="5,2" d="M463.62,-903.38C463.62,-844.81 463.62,-702 463.62,-702 463.62,-702 736.41,-702 736.41,-702"/>
<polygon fill="#3f4650" stroke="#3f4650" stroke-width="1.2" points="736.41,-704.63 743.91,-702 736.41,-699.38 736.41,-704.63"/>
<text xml:space="preserve" text-anchor="middle" x="480.88" y="-894.83" font-family="Arial" font-size="9.00">stellt dar</text>
</g>
<!-- DashboardController&#45;&gt;FortschrittChart -->
<!-- DashboardController&#45;&gt;DashboardDatenDTO -->
<g id="edge31" class="edge">
<title>DashboardController&#45;&gt;DashboardDatenDTO</title>
<path fill="none" stroke="#3f4650" stroke-width="1.2" stroke-dasharray="5,2" d="M721.2,-928C721.2,-928 856.26,-928 856.26,-928"/>
<polygon fill="#3f4650" stroke="#3f4650" stroke-width="1.2" points="856.26,-930.63 863.76,-928 856.26,-925.38 856.26,-930.63"/>
<text xml:space="preserve" text-anchor="middle" x="736.57" y="-929.95" font-family="Arial" font-size="9.00">erzeugt</text>
</g>
<!-- DashboardController&#45;&gt;ModulDatenDTO -->
<g id="edge26" class="edge">
<title>DashboardController&#45;&gt;ModulDatenDTO</title>
<path fill="none" stroke="#3f4650" stroke-width="1.2" stroke-dasharray="5,2" d="M680.38,-867.26C680.38,-805.24 680.38,-718 680.38,-718 680.38,-718 736.37,-718 736.37,-718"/>
<polygon fill="#3f4650" stroke="#3f4650" stroke-width="1.2" points="736.37,-720.63 743.87,-718 736.37,-715.38 736.37,-720.63"/>
<text xml:space="preserve" text-anchor="middle" x="665" y="-858.71" font-family="Arial" font-size="9.00">erzeugt</text>
</g>
<!-- FortschrittDatenDTO -->
<g id="node8" class="node">
<title>FortschrittDatenDTO</title>
<polygon fill="white" stroke="none" points="935,-588 935,-686 1093,-686 1093,-588 935,-588"/>
<polygon fill="none" stroke="#404040" points="935,-588 935,-686 1093,-686 1093,-588 935,-588"/>
<text xml:space="preserve" text-anchor="start" x="942" y="-670.5" font-family="Arial" font-weight="bold" font-size="10.00">FortschrittDatenDTO &lt;&lt;DTO&gt;&gt;</text>
<text xml:space="preserve" text-anchor="start" x="942" y="-645.25" font-family="Arial" font-size="10.00">+ datum : Date</text>
<text xml:space="preserve" text-anchor="start" x="942" y="-621.25" font-family="Arial" font-size="10.00">+ soll_fortschritt : Float</text>
<text xml:space="preserve" text-anchor="start" x="942" y="-597.25" font-family="Arial" font-size="10.00">+ ist_fortschritt : Float [0..1]</text>
</g>
<!-- DashboardController&#45;&gt;FortschrittDatenDTO -->
<g id="edge27" class="edge">
<title>DashboardController&#45;&gt;FortschrittDatenDTO</title>
<path fill="none" stroke="#3f4650" stroke-width="1.2" stroke-dasharray="5,2" d="M700.88,-867.19C700.88,-833.35 700.88,-798 700.88,-798 700.88,-798 1013.75,-798 1013.75,-798 1013.75,-798 1013.75,-695.06 1013.75,-695.06"/>
<polygon fill="#3f4650" stroke="#3f4650" stroke-width="1.2" points="1016.38,-695.06 1013.75,-687.56 1011.13,-695.06 1016.38,-695.06"/>
<text xml:space="preserve" text-anchor="middle" x="716.25" y="-858.64" font-family="Arial" font-size="9.00">erzeugt</text>
</g>
<!-- DashboardController&#45;&gt;StudienService -->
<g id="edge29" class="edge">
<title>DashboardController&#45;&gt;StudienService</title>
<path fill="none" stroke="#3f4650" stroke-width="1.2" d="M711.12,-867.09C711.12,-835.73 711.12,-804 711.12,-804 711.12,-804 1123.76,-804 1123.76,-804"/>
<polygon fill="#3f4650" stroke="#3f4650" stroke-width="1.2" points="1123.76,-806.63 1131.26,-804 1123.76,-801.38 1123.76,-806.63"/>
</g>
<!-- StudienRepository -->
<g id="node10" class="node">
<title>StudienRepository</title>
<polygon fill="white" stroke="none" points="1407,-891 1407,-965 1577,-965 1577,-891 1407,-891"/>
<polygon fill="none" stroke="#404040" points="1407,-891 1407,-965 1577,-965 1577,-891 1407,-891"/>
<text xml:space="preserve" text-anchor="start" x="1416.62" y="-949.5" font-family="Arial" font-weight="bold" font-size="10.00">StudienRepository &lt;&lt;abstract&gt;&gt;</text>
<text xml:space="preserve" text-anchor="start" x="1414" y="-924.25" font-family="Arial" font-size="10.00">+ lade_studiengang() : Studiengang</text>
<text xml:space="preserve" text-anchor="start" x="1414" y="-900.25" font-family="Arial" font-size="10.00">+ speichere_studiengang(...) : None</text>
</g>
<!-- DashboardController&#45;&gt;StudienRepository -->
<g id="edge30" class="edge">
<title>DashboardController&#45;&gt;StudienRepository</title>
<path fill="none" stroke="#3f4650" stroke-width="1.2" d="M690.62,-867.38C690.62,-826.5 690.62,-780 690.62,-780 690.62,-780 1411,-780 1411,-780 1411,-780 1411,-881.72 1411,-881.72"/>
<polygon fill="#3f4650" stroke="#3f4650" stroke-width="1.2" points="1408.38,-881.72 1411,-889.22 1413.63,-881.72 1408.38,-881.72"/>
</g>
<!-- CircularProgress&#45;&gt;FortschrittChart -->
<!-- FortschrittChart&#45;&gt;FortschrittDatenDTO -->
<g id="edge25" class="edge">
<title>FortschrittChart&#45;&gt;FortschrittDatenDTO</title>
<path fill="none" stroke="#3f4650" stroke-width="1.2" stroke-dasharray="5,2" d="M620.29,-685.8C620.29,-715.98 620.29,-749 620.29,-749 620.29,-749 974.38,-749 974.38,-749 974.38,-749 974.38,-695.12 974.38,-695.12"/>
<polygon fill="#3f4650" stroke="#3f4650" stroke-width="1.2" points="977,-695.12 974.38,-687.62 971.75,-695.12 977,-695.12"/>
<text xml:space="preserve" text-anchor="middle" x="603.04" y="-687.75" font-family="Arial" font-size="9.00">stellt dar</text>
</g>
<!-- DashboardDatenDTO&#45;&gt;ModulDatenDTO -->
<!-- DashboardDatenDTO&#45;&gt;ModulDatenDTO -->
<g id="edge28" class="edge">
<title>DashboardDatenDTO&#45;&gt;ModulDatenDTO</title>
<path fill="none" stroke="#3f4650" stroke-width="1.2" d="M875.17,-796.85C875.17,-796.85 875.17,-733.58 875.17,-733.58"/>
<polygon fill="#3f4650" stroke="#3f4650" stroke-width="1.2" points="875.17,-797.04 878.17,-801.54 875.17,-806.04 872.17,-801.54 875.17,-797.04"/>
<text xml:space="preserve" text-anchor="middle" x="870.38" y="-743.44" font-family="Arial" font-size="9.00">0..*</text>
<text xml:space="preserve" text-anchor="middle" x="879.95" y="-790.66" font-family="Arial" font-size="9.00">1</text>
</g>
<!-- DashboardDatenDTO&#45;&gt;FortschrittDatenDTO -->
<g id="edge33" class="edge">
<title>DashboardDatenDTO&#45;&gt;FortschrittDatenDTO</title>
<path fill="none" stroke="#3f4650" stroke-width="1.2" d="M1053.12,-796.85C1053.12,-796.85 1053.12,-685.73 1053.12,-685.73"/>
<polygon fill="#3f4650" stroke="#3f4650" stroke-width="1.2" points="1053.13,-797.04 1056.13,-801.54 1053.13,-806.04 1050.13,-801.54 1053.13,-797.04"/>
<text xml:space="preserve" text-anchor="middle" x="1060.31" y="-697.84" font-family="Arial" font-size="9.00">0..*</text>
<text xml:space="preserve" text-anchor="middle" x="1045.94" y="-788.41" font-family="Arial" font-size="9.00">1</text>
</g>
<!-- DashboardDatenDTO&#45;&gt;StudienService -->
<!-- Studiengang -->
<g id="node12" class="node">
<title>Studiengang</title>
<polygon fill="white" stroke="none" points="1082.5,-309 1082.5,-479 1225.5,-479 1225.5,-309 1082.5,-309"/>
<polygon fill="none" stroke="#404040" points="1082.5,-309 1082.5,-479 1225.5,-479 1225.5,-309 1082.5,-309"/>
<text xml:space="preserve" text-anchor="start" x="1124.38" y="-463.5" font-family="Arial" font-weight="bold" font-size="10.00">Studiengang</text>
<text xml:space="preserve" text-anchor="start" x="1089.5" y="-438.25" font-family="Arial" font-size="10.00">&#45; bezeichnung : String</text>
<text xml:space="preserve" text-anchor="start" x="1089.5" y="-414.25" font-family="Arial" font-size="10.00">&#45; gesamt_ects : Integer</text>
<text xml:space="preserve" text-anchor="start" x="1089.5" y="-390.25" font-family="Arial" font-size="10.00">&#45; startdatum : Date</text>
<text xml:space="preserve" text-anchor="start" x="1089.5" y="-366.25" font-family="Arial" font-size="10.00">&#45; regulaeres_enddatum : Date</text>
<text xml:space="preserve" text-anchor="start" x="1089.5" y="-342.25" font-family="Arial" font-size="10.00">&#45; ziel_enddatum : Date</text>
<text xml:space="preserve" text-anchor="start" x="1089.5" y="-318.25" font-family="Arial" font-size="10.00">&#45; zielnote : Float</text>
</g>
<!-- DashboardDatenDTO&#45;&gt;Studiengang -->
<!-- ModulDatenDTO&#45;&gt;FortschrittDatenDTO -->
<!-- StudienService&#45;&gt;StudienRepository -->
<!-- StudienService&#45;&gt;Studiengang -->
<g id="edge36" class="edge">
<title>StudienService&#45;&gt;Studiengang</title>
<path fill="none" stroke="#3f4650" stroke-width="1.2" stroke-dasharray="5,2" d="M1179.12,-795.31C1179.12,-795.31 1179.12,-488.2 1179.12,-488.2"/>
<polygon fill="#3f4650" stroke="#3f4650" stroke-width="1.2" points="1181.75,-488.2 1179.13,-480.7 1176.5,-488.2 1181.75,-488.2"/>
<text xml:space="preserve" text-anchor="middle" x="1158.12" y="-786.76" font-family="Arial" font-size="9.00">wertet aus</text>
</g>
<!-- StudienRepository&#45;&gt;SQLiteStudienRepository -->
<!-- SQLiteStudienRepository&#45;&gt;StudienRepository -->
<g id="edge34" class="edge">
<title>SQLiteStudienRepository&#45;&gt;StudienRepository</title>
<path fill="none" stroke="#3f4650" stroke-width="1.2" stroke-dasharray="5,2" d="M1617.19,-916C1617.19,-916 1586.1,-916 1586.1,-916"/>
<polygon fill="none" stroke="#3f4650" stroke-width="1.2" points="1586.1,-913.38 1578.6,-916 1586.1,-918.63 1586.1,-913.38"/>
</g>
<!-- SQLiteStudienRepository&#45;&gt;Studiengang -->
<g id="edge35" class="edge">
<title>SQLiteStudienRepository&#45;&gt;Studiengang</title>
<path fill="none" stroke="#3f4650" stroke-width="1.2" stroke-dasharray="5,2" d="M1617.38,-885C1526.61,-885 1395.31,-885 1395.31,-885 1395.31,-885 1395.31,-473 1395.31,-473 1395.31,-473 1234.74,-473 1234.74,-473"/>
<polygon fill="#3f4650" stroke="#3f4650" stroke-width="1.2" points="1234.74,-470.38 1227.24,-473 1234.74,-475.63 1234.74,-470.38"/>
<text xml:space="preserve" text-anchor="middle" x="1587.76" y="-876.45" font-family="Arial" font-size="9.00">lädt / speichert</text>
</g>
<!-- Semester -->
<g id="node13" class="node">
<title>Semester</title>
<polygon fill="white" stroke="none" points="1265.38,-321 1265.38,-467 1374.62,-467 1374.62,-321 1265.38,-321"/>
<polygon fill="none" stroke="#404040" points="1265.38,-321 1265.38,-467 1374.62,-467 1374.62,-321 1265.38,-321"/>
<text xml:space="preserve" text-anchor="start" x="1298.25" y="-451.5" font-family="Arial" font-weight="bold" font-size="10.00">Semester</text>
<text xml:space="preserve" text-anchor="start" x="1272.38" y="-426.25" font-family="Arial" font-size="10.00">&#45; nummer : Integer</text>
<text xml:space="preserve" text-anchor="start" x="1272.38" y="-402.25" font-family="Arial" font-size="10.00">&#45; bezeichnung : String</text>
<text xml:space="preserve" text-anchor="start" x="1272.38" y="-378.25" font-family="Arial" font-size="10.00">&#45; studienstart : Date</text>
<text xml:space="preserve" text-anchor="start" x="1272.38" y="-354.25" font-family="Arial" font-size="10.00">&#45; /startdatum : Date</text>
<text xml:space="preserve" text-anchor="start" x="1272.38" y="-330.25" font-family="Arial" font-size="10.00">&#45; /enddatum : Date</text>
</g>
<!-- Studiengang&#45;&gt;Semester -->
<!-- Studiengang&#45;&gt;Semester -->
<g id="edge37" class="edge">
<title>Studiengang&#45;&gt;Semester</title>
<path fill="none" stroke="#3f4650" stroke-width="1.2" d="M1235.63,-418C1235.63,-418 1265.49,-418 1265.49,-418"/>
<polygon fill="#3f4650" stroke="#3f4650" stroke-width="1.2" points="1235.44,-418 1230.94,-421 1226.44,-418 1230.94,-415 1235.44,-418"/>
<text xml:space="preserve" text-anchor="middle" x="1254.62" y="-419.77" font-family="Arial" font-size="9.00">1..*</text>
<text xml:space="preserve" text-anchor="middle" x="1236.24" y="-409.63" font-family="Arial" font-size="9.00">1</text>
</g>
<!-- Modulstatus -->
<g id="node16" class="node">
<title>Modulstatus</title>
<polygon fill="white" stroke="none" points="1091.88,-64 1091.88,-138 1216.12,-138 1216.12,-64 1091.88,-64"/>
<polygon fill="none" stroke="#404040" points="1091.88,-64 1091.88,-138 1216.12,-138 1216.12,-64 1091.88,-64"/>
<text xml:space="preserve" text-anchor="start" x="1098.88" y="-122.5" font-family="Arial" font-weight="bold" font-size="10.00">Modulstatus &lt;&lt;enum&gt;&gt;</text>
<text xml:space="preserve" text-anchor="start" x="1098.88" y="-97.25" font-family="Arial" font-size="10.00">GEPLANT</text>
<text xml:space="preserve" text-anchor="start" x="1098.88" y="-73.25" font-family="Arial" font-size="10.00">IN_BEARBEITUNG</text>
</g>
<!-- Studiengang&#45;&gt;Modulstatus -->
<!-- Modul -->
<g id="node14" class="node">
<title>Modul</title>
<polygon fill="white" stroke="none" points="1415,-321 1415,-467 1531,-467 1531,-321 1415,-321"/>
<polygon fill="none" stroke="#404040" points="1415,-321 1415,-467 1531,-467 1531,-321 1415,-321"/>
<text xml:space="preserve" text-anchor="start" x="1458.38" y="-451.5" font-family="Arial" font-weight="bold" font-size="10.00">Modul</text>
<text xml:space="preserve" text-anchor="start" x="1422" y="-426.25" font-family="Arial" font-size="10.00">&#45; modulnummer : String</text>
<text xml:space="preserve" text-anchor="start" x="1422" y="-402.25" font-family="Arial" font-size="10.00">&#45; bezeichnung : String</text>
<text xml:space="preserve" text-anchor="start" x="1422" y="-378.25" font-family="Arial" font-size="10.00">&#45; ects : Integer</text>
<text xml:space="preserve" text-anchor="start" x="1422" y="-354.25" font-family="Arial" font-size="10.00">&#45; status : Modulstatus</text>
<text xml:space="preserve" text-anchor="start" x="1422" y="-330.25" font-family="Arial" font-size="10.00">&#45; /bestanden : Boolean</text>
</g>
<!-- Semester&#45;&gt;Modul -->
<!-- Semester&#45;&gt;Modul -->
<g id="edge38" class="edge">
<title>Semester&#45;&gt;Modul</title>
<path fill="none" stroke="#3f4650" stroke-width="1.2" d="M1384.64,-370C1384.64,-370 1415.17,-370 1415.17,-370"/>
<polygon fill="none" stroke="#3f4650" stroke-width="1.2" points="1384.45,-370 1379.95,-373 1375.45,-370 1379.95,-367 1384.45,-370"/>
<text xml:space="preserve" text-anchor="middle" x="1404.3" y="-371.77" font-family="Arial" font-size="9.00">0..*</text>
<text xml:space="preserve" text-anchor="middle" x="1385.25" y="-361.63" font-family="Arial" font-size="9.00">1</text>
</g>
<!-- Pruefungsleistung -->
<g id="node15" class="node">
<title>Pruefungsleistung</title>
<polygon fill="white" stroke="none" points="1571.38,-309 1571.38,-479 1716.62,-479 1716.62,-309 1571.38,-309"/>
<polygon fill="none" stroke="#404040" points="1571.38,-309 1571.38,-479 1716.62,-479 1716.62,-309 1571.38,-309"/>
<text xml:space="preserve" text-anchor="start" x="1601.25" y="-463.5" font-family="Arial" font-weight="bold" font-size="10.00">Pruefungsleistung</text>
<text xml:space="preserve" text-anchor="start" x="1578.38" y="-438.25" font-family="Arial" font-size="10.00">&#45; bezeichnung : String</text>
<text xml:space="preserve" text-anchor="start" x="1578.38" y="-414.25" font-family="Arial" font-size="10.00">&#45; pruefungsart : Pruefungsart</text>
<text xml:space="preserve" text-anchor="start" x="1578.38" y="-390.25" font-family="Arial" font-size="10.00">&#45; pruefungsdatum : Date [0..1]</text>
<text xml:space="preserve" text-anchor="start" x="1578.38" y="-366.25" font-family="Arial" font-size="10.00">&#45; note : Float [0..1]</text>
<text xml:space="preserve" text-anchor="start" x="1578.38" y="-342.25" font-family="Arial" font-size="10.00">&#45; /bestanden : Boolean</text>
<text xml:space="preserve" text-anchor="start" x="1578.38" y="-318.25" font-family="Arial" font-size="10.00">+ ist_bewertet() : Boolean</text>
</g>
<!-- Modul&#45;&gt;Pruefungsleistung -->
<!-- Modul&#45;&gt;Pruefungsleistung -->
<g id="edge39" class="edge">
<title>Modul&#45;&gt;Pruefungsleistung</title>
<path fill="none" stroke="#3f4650" stroke-width="1.2" d="M1541.16,-418C1541.16,-418 1571.61,-418 1571.61,-418"/>
<polygon fill="#3f4650" stroke="#3f4650" stroke-width="1.2" points="1540.97,-418 1536.47,-421 1531.97,-418 1536.47,-415 1540.97,-418"/>
<text xml:space="preserve" text-anchor="middle" x="1560.74" y="-419.77" font-family="Arial" font-size="9.00">0..*</text>
<text xml:space="preserve" text-anchor="middle" x="1541.77" y="-409.63" font-family="Arial" font-size="9.00">1</text>
</g>
<!-- Modul&#45;&gt;Modulstatus -->
<g id="edge40" class="edge">
<title>Modul&#45;&gt;Modulstatus</title>
<path fill="none" stroke="#3f4650" stroke-width="1.2" stroke-dasharray="5,2" d="M1473,-321C1473,-284.5 1473,-248 1473,-248 1473,-248 1174.71,-248 1174.71,-248 1174.71,-248 1174.71,-147.03 1174.71,-147.03"/>
<polygon fill="#3f4650" stroke="#3f4650" stroke-width="1.2" points="1177.33,-147.03 1174.71,-139.53 1172.08,-147.03 1177.33,-147.03"/>
</g>
<!-- Pruefungsart -->
<g id="node17" class="node">
<title>Pruefungsart</title>
<polygon fill="white" stroke="none" points="1256.38,-16 1256.38,-186 1383.62,-186 1383.62,-16 1256.38,-16"/>
<polygon fill="none" stroke="#404040" points="1256.38,-16 1256.38,-186 1383.62,-186 1383.62,-16 1256.38,-16"/>
<text xml:space="preserve" text-anchor="start" x="1263.38" y="-170.5" font-family="Arial" font-weight="bold" font-size="10.00">Pruefungsart &lt;&lt;enum&gt;&gt;</text>
<text xml:space="preserve" text-anchor="start" x="1263.38" y="-145.25" font-family="Arial" font-size="10.00">KLAUSUR</text>
<text xml:space="preserve" text-anchor="start" x="1263.38" y="-121.25" font-family="Arial" font-size="10.00">PROJEKTARBEIT</text>
<text xml:space="preserve" text-anchor="start" x="1263.38" y="-97.25" font-family="Arial" font-size="10.00">HAUSARBEIT</text>
<text xml:space="preserve" text-anchor="start" x="1263.38" y="-73.25" font-family="Arial" font-size="10.00">PORTFOLIO</text>
<text xml:space="preserve" text-anchor="start" x="1263.38" y="-49.25" font-family="Arial" font-size="10.00">PRAESENTATION</text>
<text xml:space="preserve" text-anchor="start" x="1263.38" y="-25.25" font-family="Arial" font-size="10.00">SONSTIGE</text>
</g>
<!-- Pruefungsleistung&#45;&gt;Pruefungsart -->
<g id="edge41" class="edge">
<title>Pruefungsleistung&#45;&gt;Pruefungsart</title>
<path fill="none" stroke="#3f4650" stroke-width="1.2" stroke-dasharray="5,2" d="M1571.62,-315C1493.2,-315 1379.12,-315 1379.12,-315 1379.12,-315 1379.12,-195.2 1379.12,-195.2"/>
<polygon fill="#3f4650" stroke="#3f4650" stroke-width="1.2" points="1381.75,-195.2 1379.13,-187.7 1376.5,-195.2 1381.75,-195.2"/>
</g>
<!-- Modulstatus&#45;&gt;Pruefungsart -->
</g>
</svg>
